<svg width="16" height="16" viewBox="0 0 16 16" xmlns="http://www.w3.org/2000/svg">
  <!-- 
    Monochrome SVG for Safari Pinned Tab.
    This icon should be a single color and have a transparent background.
    The `fill` attribute will be overridden by Safari with the theme color.
  -->
  <path fill-rule="evenodd" clip-rule="evenodd" 
        d="M8 1.5C4.41 1.5 1.5 4.41 1.5 8C1.5 11.59 4.41 14.5 8 14.5C11.59 14.5 14.5 11.59 14.5 8C14.5 4.41 11.59 1.5 8 1.5ZM0 8C0 3.582 3.582 0 8 0C12.418 0 16 3.582 16 8C16 12.418 12.418 16 8 16C3.582 16 0 12.418 0 8Z" 
        fill="#000000"/>
  <path d="M8 3C5.239 3 3 5.239 3 8C3 10.761 5.239 13 8 13C10.761 13 13 10.761 13 8C13 5.239 10.761 3 8 3ZM4.5 8H11.5" 
        stroke="#000000" stroke-width="1" stroke-linecap="round" stroke-linejoin="round"/>
  <path d="M8 4.5V11.5" 
        stroke="#000000" stroke-width="1" stroke-linecap="round" stroke-linejoin="round"/>
  <path d="M11.5 8C11.5 5.515 9.485 3.5 7 3.5" 
        stroke="#000000" stroke-width="1.2" stroke-linecap="round" fill="none"/>
  <circle cx="9.8" cy="4.8" r="1" fill="#000000"/>
</svg>